<svg xmlns="http://www.w3.org/2000/svg" viewBox="0 0 320 72" width="320" height="72" role="img" aria-label="Tata Motors">
  <!-- Reversed lockup, for the blue masthead. -->
  <g transform="translate(8,14)">
    <circle cx="26" cy="20" r="20" fill="#FFFFFF"/>
    <path d="M26 6c7.7 0 14 6.3 14 14 0 3.6-1.4 6.9-3.6 9.4-1.6-6-6-9.6-10.4-9.6s-8.8 3.6-10.4 9.6A13.9 13.9 0 0 1 12 20c0-7.7 6.3-14 14-14z" fill="#486AAE"/>
    <path d="M26 34c-3.6 0-6.8-1.4-9.2-3.6 1.5-5 4.9-8 9.2-8s7.7 3 9.2 8A13.5 13.5 0 0 1 26 34z" fill="#486AAE" fill-opacity=".45"/>
  </g>
  <text x="76" y="41" font-family="'Segoe UI Variable Display','Segoe UI',-apple-system,'Helvetica Neue',Arial,sans-serif"
        font-size="30" font-weight="700" letter-spacing="2.6" fill="#FFFFFF">TATA</text>
  <text x="78" y="58" font-family="'Segoe UI',-apple-system,'Helvetica Neue',Arial,sans-serif"
        font-size="11" font-weight="500" letter-spacing="2.2" fill="#DCE5F5">MOTORS</text>
</svg>
